<mxfile host="app.diagrams.net" modified="2023-10-12T20:41:25.108Z" agent="Mozilla/5.0 (Windows NT 10.0; Win64; x64) AppleWebKit/537.36 (KHTML, like Gecko) Chrome/118.0.0.0 Safari/537.36" etag="JloY6opfDmrgsnU3vB5v" version="22.0.4" type="device">
  <diagram id="C5RBs43oDa-KdzZeNtuy" name="Page-1">
    <mxGraphModel dx="2261" dy="1929" grid="1" gridSize="10" guides="1" tooltips="1" connect="1" arrows="1" fold="1" page="1" pageScale="1" pageWidth="827" pageHeight="1169" math="0" shadow="0">
      <root>
        <mxCell id="WIyWlLk6GJQsqaUBKTNV-0" />
        <mxCell id="WIyWlLk6GJQsqaUBKTNV-1" parent="WIyWlLk6GJQsqaUBKTNV-0" />
        <mxCell id="WIyWlLk6GJQsqaUBKTNV-2" value="" style="rounded=0;html=1;jettySize=auto;orthogonalLoop=1;fontSize=11;endArrow=block;endFill=0;endSize=8;strokeWidth=1;shadow=0;labelBackgroundColor=none;edgeStyle=orthogonalEdgeStyle;" parent="WIyWlLk6GJQsqaUBKTNV-1" source="WIyWlLk6GJQsqaUBKTNV-3" target="WIyWlLk6GJQsqaUBKTNV-6" edge="1">
          <mxGeometry relative="1" as="geometry" />
        </mxCell>
        <mxCell id="WIyWlLk6GJQsqaUBKTNV-3" value="Program&lt;br&gt;&amp;nbsp;Startup" style="rounded=1;whiteSpace=wrap;html=1;fontSize=12;glass=0;strokeWidth=1;shadow=0;" parent="WIyWlLk6GJQsqaUBKTNV-1" vertex="1">
          <mxGeometry x="300" y="40" width="120" height="40" as="geometry" />
        </mxCell>
        <mxCell id="WIyWlLk6GJQsqaUBKTNV-5" value="" style="edgeStyle=orthogonalEdgeStyle;rounded=0;html=1;jettySize=auto;orthogonalLoop=1;fontSize=11;endArrow=block;endFill=0;endSize=8;strokeWidth=1;shadow=0;labelBackgroundColor=none;exitX=1;exitY=0.5;exitDx=0;exitDy=0;entryX=0.5;entryY=0;entryDx=0;entryDy=0;" parent="WIyWlLk6GJQsqaUBKTNV-1" source="WIyWlLk6GJQsqaUBKTNV-3" target="WIyWlLk6GJQsqaUBKTNV-10" edge="1">
          <mxGeometry y="10" relative="1" as="geometry">
            <mxPoint as="offset" />
            <mxPoint x="720" y="110" as="targetPoint" />
          </mxGeometry>
        </mxCell>
        <mxCell id="WIyWlLk6GJQsqaUBKTNV-6" value="Login&lt;br&gt;(Are you an &lt;br&gt;existing&lt;br&gt;customer)" style="rhombus;whiteSpace=wrap;html=1;shadow=0;fontFamily=Helvetica;fontSize=12;align=center;strokeWidth=1;spacing=6;spacingTop=-4;" parent="WIyWlLk6GJQsqaUBKTNV-1" vertex="1">
          <mxGeometry x="90" y="100" width="120" height="110" as="geometry" />
        </mxCell>
        <mxCell id="WIyWlLk6GJQsqaUBKTNV-10" value="Register&lt;br&gt;(Are you a new &lt;br&gt;customer)" style="rhombus;whiteSpace=wrap;html=1;shadow=0;fontFamily=Helvetica;fontSize=12;align=center;strokeWidth=1;spacing=6;spacingTop=-4;" parent="WIyWlLk6GJQsqaUBKTNV-1" vertex="1">
          <mxGeometry x="530" y="110" width="110" height="100" as="geometry" />
        </mxCell>
        <mxCell id="Vi7gKBtvzw7k_XYwPfhD-10" value="" style="endArrow=classic;html=1;rounded=0;exitX=0.5;exitY=1;exitDx=0;exitDy=0;" edge="1" parent="WIyWlLk6GJQsqaUBKTNV-1" source="WIyWlLk6GJQsqaUBKTNV-10">
          <mxGeometry width="50" height="50" relative="1" as="geometry">
            <mxPoint x="590" y="280" as="sourcePoint" />
            <mxPoint x="585" y="250" as="targetPoint" />
          </mxGeometry>
        </mxCell>
        <mxCell id="Vi7gKBtvzw7k_XYwPfhD-11" value="" style="endArrow=classic;html=1;rounded=0;exitX=0.5;exitY=1;exitDx=0;exitDy=0;" edge="1" parent="WIyWlLk6GJQsqaUBKTNV-1" source="WIyWlLk6GJQsqaUBKTNV-6">
          <mxGeometry width="50" height="50" relative="1" as="geometry">
            <mxPoint x="140" y="280" as="sourcePoint" />
            <mxPoint x="151" y="246" as="targetPoint" />
          </mxGeometry>
        </mxCell>
        <mxCell id="Vi7gKBtvzw7k_XYwPfhD-21" value="" style="edgeStyle=orthogonalEdgeStyle;rounded=0;orthogonalLoop=1;jettySize=auto;html=1;" edge="1" parent="WIyWlLk6GJQsqaUBKTNV-1" source="Vi7gKBtvzw7k_XYwPfhD-12" target="Vi7gKBtvzw7k_XYwPfhD-20">
          <mxGeometry relative="1" as="geometry" />
        </mxCell>
        <mxCell id="Vi7gKBtvzw7k_XYwPfhD-12" value="Login Page&lt;br&gt;" style="rounded=0;whiteSpace=wrap;html=1;" vertex="1" parent="WIyWlLk6GJQsqaUBKTNV-1">
          <mxGeometry x="80" y="250" width="120" height="60" as="geometry" />
        </mxCell>
        <mxCell id="Vi7gKBtvzw7k_XYwPfhD-13" value="Register Page" style="rounded=0;whiteSpace=wrap;html=1;" vertex="1" parent="WIyWlLk6GJQsqaUBKTNV-1">
          <mxGeometry x="520" y="250" width="120" height="60" as="geometry" />
        </mxCell>
        <mxCell id="Vi7gKBtvzw7k_XYwPfhD-15" value="" style="endArrow=classic;html=1;rounded=0;exitX=0.5;exitY=1;exitDx=0;exitDy=0;entryX=0.5;entryY=0;entryDx=0;entryDy=0;" edge="1" parent="WIyWlLk6GJQsqaUBKTNV-1" source="Vi7gKBtvzw7k_XYwPfhD-13" target="Vi7gKBtvzw7k_XYwPfhD-17">
          <mxGeometry width="50" height="50" relative="1" as="geometry">
            <mxPoint x="540" y="360" as="sourcePoint" />
            <mxPoint x="580" y="340" as="targetPoint" />
          </mxGeometry>
        </mxCell>
        <mxCell id="Vi7gKBtvzw7k_XYwPfhD-40" style="edgeStyle=orthogonalEdgeStyle;rounded=0;orthogonalLoop=1;jettySize=auto;html=1;entryX=0.5;entryY=0;entryDx=0;entryDy=0;exitX=1;exitY=0.5;exitDx=0;exitDy=0;" edge="1" parent="WIyWlLk6GJQsqaUBKTNV-1" source="Vi7gKBtvzw7k_XYwPfhD-17" target="Vi7gKBtvzw7k_XYwPfhD-36">
          <mxGeometry relative="1" as="geometry">
            <mxPoint x="580" y="720" as="targetPoint" />
            <Array as="points">
              <mxPoint x="690" y="585" />
            </Array>
          </mxGeometry>
        </mxCell>
        <mxCell id="Vi7gKBtvzw7k_XYwPfhD-55" style="edgeStyle=orthogonalEdgeStyle;rounded=0;orthogonalLoop=1;jettySize=auto;html=1;entryX=0.65;entryY=0.033;entryDx=0;entryDy=0;entryPerimeter=0;exitX=1;exitY=0.75;exitDx=0;exitDy=0;" edge="1" parent="WIyWlLk6GJQsqaUBKTNV-1" source="Vi7gKBtvzw7k_XYwPfhD-17" target="Vi7gKBtvzw7k_XYwPfhD-54">
          <mxGeometry relative="1" as="geometry">
            <mxPoint x="660" y="630" as="targetPoint" />
          </mxGeometry>
        </mxCell>
        <mxCell id="Vi7gKBtvzw7k_XYwPfhD-17" value="Home Page" style="rounded=0;whiteSpace=wrap;html=1;" vertex="1" parent="WIyWlLk6GJQsqaUBKTNV-1">
          <mxGeometry x="520" y="555" width="120" height="60" as="geometry" />
        </mxCell>
        <mxCell id="Vi7gKBtvzw7k_XYwPfhD-27" value="" style="edgeStyle=orthogonalEdgeStyle;rounded=0;orthogonalLoop=1;jettySize=auto;html=1;" edge="1" parent="WIyWlLk6GJQsqaUBKTNV-1" source="Vi7gKBtvzw7k_XYwPfhD-20" target="Vi7gKBtvzw7k_XYwPfhD-25">
          <mxGeometry relative="1" as="geometry" />
        </mxCell>
        <mxCell id="Vi7gKBtvzw7k_XYwPfhD-20" value="Check if user&lt;br&gt;is an Admin" style="rhombus;whiteSpace=wrap;html=1;shadow=0;fontFamily=Helvetica;fontSize=12;align=center;strokeWidth=1;spacing=6;spacingTop=-4;" vertex="1" parent="WIyWlLk6GJQsqaUBKTNV-1">
          <mxGeometry x="90" y="360" width="100" height="80" as="geometry" />
        </mxCell>
        <mxCell id="Vi7gKBtvzw7k_XYwPfhD-23" value="" style="edgeStyle=orthogonalEdgeStyle;rounded=0;orthogonalLoop=1;jettySize=auto;html=1;" edge="1" parent="WIyWlLk6GJQsqaUBKTNV-1" source="Vi7gKBtvzw7k_XYwPfhD-22" target="WIyWlLk6GJQsqaUBKTNV-3">
          <mxGeometry relative="1" as="geometry" />
        </mxCell>
        <mxCell id="Vi7gKBtvzw7k_XYwPfhD-22" value="Start" style="ellipse;whiteSpace=wrap;html=1;" vertex="1" parent="WIyWlLk6GJQsqaUBKTNV-1">
          <mxGeometry x="300" y="-60" width="120" height="80" as="geometry" />
        </mxCell>
        <mxCell id="Vi7gKBtvzw7k_XYwPfhD-24" value="Peripheral&lt;br&gt;Page" style="rounded=0;whiteSpace=wrap;html=1;" vertex="1" parent="WIyWlLk6GJQsqaUBKTNV-1">
          <mxGeometry x="270" y="730" width="120" height="60" as="geometry" />
        </mxCell>
        <mxCell id="Vi7gKBtvzw7k_XYwPfhD-25" value="Admin page&lt;br&gt;" style="rounded=0;whiteSpace=wrap;html=1;" vertex="1" parent="WIyWlLk6GJQsqaUBKTNV-1">
          <mxGeometry x="300" y="370" width="120" height="60" as="geometry" />
        </mxCell>
        <mxCell id="Vi7gKBtvzw7k_XYwPfhD-28" value="Yes&lt;br&gt;" style="text;html=1;align=center;verticalAlign=middle;resizable=0;points=[];autosize=1;strokeColor=none;fillColor=none;" vertex="1" parent="WIyWlLk6GJQsqaUBKTNV-1">
          <mxGeometry x="220" y="378" width="40" height="30" as="geometry" />
        </mxCell>
        <mxCell id="Vi7gKBtvzw7k_XYwPfhD-31" value="" style="endArrow=classic;html=1;rounded=0;exitX=0.5;exitY=1;exitDx=0;exitDy=0;entryX=0;entryY=0.5;entryDx=0;entryDy=0;" edge="1" parent="WIyWlLk6GJQsqaUBKTNV-1" source="Vi7gKBtvzw7k_XYwPfhD-20" target="Vi7gKBtvzw7k_XYwPfhD-17">
          <mxGeometry width="50" height="50" relative="1" as="geometry">
            <mxPoint x="150" y="520" as="sourcePoint" />
            <mxPoint x="200" y="470" as="targetPoint" />
            <Array as="points">
              <mxPoint x="140" y="585" />
            </Array>
          </mxGeometry>
        </mxCell>
        <mxCell id="Vi7gKBtvzw7k_XYwPfhD-33" value="No&lt;br&gt;" style="text;html=1;align=center;verticalAlign=middle;resizable=0;points=[];autosize=1;strokeColor=none;fillColor=none;" vertex="1" parent="WIyWlLk6GJQsqaUBKTNV-1">
          <mxGeometry x="110" y="478" width="40" height="30" as="geometry" />
        </mxCell>
        <mxCell id="Vi7gKBtvzw7k_XYwPfhD-35" value="" style="endArrow=classic;html=1;rounded=0;exitX=1;exitY=0.5;exitDx=0;exitDy=0;entryX=0;entryY=0.25;entryDx=0;entryDy=0;" edge="1" parent="WIyWlLk6GJQsqaUBKTNV-1" source="Vi7gKBtvzw7k_XYwPfhD-25" target="Vi7gKBtvzw7k_XYwPfhD-17">
          <mxGeometry width="50" height="50" relative="1" as="geometry">
            <mxPoint x="450" y="458" as="sourcePoint" />
            <mxPoint x="500" y="408" as="targetPoint" />
            <Array as="points">
              <mxPoint x="450" y="400" />
              <mxPoint x="450" y="570" />
            </Array>
          </mxGeometry>
        </mxCell>
        <mxCell id="Vi7gKBtvzw7k_XYwPfhD-49" value="" style="edgeStyle=orthogonalEdgeStyle;rounded=0;orthogonalLoop=1;jettySize=auto;html=1;" edge="1" parent="WIyWlLk6GJQsqaUBKTNV-1" source="Vi7gKBtvzw7k_XYwPfhD-36" target="Vi7gKBtvzw7k_XYwPfhD-47">
          <mxGeometry relative="1" as="geometry" />
        </mxCell>
        <mxCell id="Vi7gKBtvzw7k_XYwPfhD-51" style="edgeStyle=orthogonalEdgeStyle;rounded=0;orthogonalLoop=1;jettySize=auto;html=1;entryX=0;entryY=0.5;entryDx=0;entryDy=0;" edge="1" parent="WIyWlLk6GJQsqaUBKTNV-1" source="Vi7gKBtvzw7k_XYwPfhD-36" target="Vi7gKBtvzw7k_XYwPfhD-48">
          <mxGeometry relative="1" as="geometry">
            <mxPoint x="690" y="890" as="targetPoint" />
            <Array as="points">
              <mxPoint x="690" y="820" />
              <mxPoint x="691" y="820" />
              <mxPoint x="691" y="840" />
            </Array>
          </mxGeometry>
        </mxCell>
        <mxCell id="Vi7gKBtvzw7k_XYwPfhD-36" value="GPU&lt;br&gt;Page" style="rounded=0;whiteSpace=wrap;html=1;" vertex="1" parent="WIyWlLk6GJQsqaUBKTNV-1">
          <mxGeometry x="630" y="730" width="120" height="60" as="geometry" />
        </mxCell>
        <mxCell id="Vi7gKBtvzw7k_XYwPfhD-103" style="edgeStyle=orthogonalEdgeStyle;rounded=0;orthogonalLoop=1;jettySize=auto;html=1;entryX=0.375;entryY=0.033;entryDx=0;entryDy=0;entryPerimeter=0;" edge="1" parent="WIyWlLk6GJQsqaUBKTNV-1" source="Vi7gKBtvzw7k_XYwPfhD-37" target="Vi7gKBtvzw7k_XYwPfhD-102">
          <mxGeometry relative="1" as="geometry">
            <mxPoint x="40" y="760" as="targetPoint" />
            <Array as="points">
              <mxPoint x="40" y="780" />
            </Array>
          </mxGeometry>
        </mxCell>
        <mxCell id="Vi7gKBtvzw7k_XYwPfhD-37" value="FPS Calculator&lt;br&gt;Page" style="rounded=0;whiteSpace=wrap;html=1;" vertex="1" parent="WIyWlLk6GJQsqaUBKTNV-1">
          <mxGeometry x="90" y="730" width="120" height="60" as="geometry" />
        </mxCell>
        <mxCell id="Vi7gKBtvzw7k_XYwPfhD-63" value="" style="edgeStyle=orthogonalEdgeStyle;rounded=0;orthogonalLoop=1;jettySize=auto;html=1;" edge="1" parent="WIyWlLk6GJQsqaUBKTNV-1" source="Vi7gKBtvzw7k_XYwPfhD-38" target="Vi7gKBtvzw7k_XYwPfhD-62">
          <mxGeometry relative="1" as="geometry">
            <Array as="points">
              <mxPoint x="440" y="760" />
              <mxPoint x="440" y="825" />
              <mxPoint x="414" y="825" />
            </Array>
          </mxGeometry>
        </mxCell>
        <mxCell id="Vi7gKBtvzw7k_XYwPfhD-65" value="" style="edgeStyle=orthogonalEdgeStyle;rounded=0;orthogonalLoop=1;jettySize=auto;html=1;exitX=0.833;exitY=1.083;exitDx=0;exitDy=0;exitPerimeter=0;" edge="1" parent="WIyWlLk6GJQsqaUBKTNV-1" source="Vi7gKBtvzw7k_XYwPfhD-38" target="Vi7gKBtvzw7k_XYwPfhD-64">
          <mxGeometry relative="1" as="geometry">
            <Array as="points">
              <mxPoint x="550" y="840" />
              <mxPoint x="580" y="840" />
            </Array>
          </mxGeometry>
        </mxCell>
        <mxCell id="Vi7gKBtvzw7k_XYwPfhD-71" value="" style="edgeStyle=orthogonalEdgeStyle;rounded=0;orthogonalLoop=1;jettySize=auto;html=1;" edge="1" parent="WIyWlLk6GJQsqaUBKTNV-1" source="Vi7gKBtvzw7k_XYwPfhD-38" target="Vi7gKBtvzw7k_XYwPfhD-70">
          <mxGeometry relative="1" as="geometry" />
        </mxCell>
        <mxCell id="Vi7gKBtvzw7k_XYwPfhD-38" value="CPU&lt;br&gt;Page" style="rounded=0;whiteSpace=wrap;html=1;" vertex="1" parent="WIyWlLk6GJQsqaUBKTNV-1">
          <mxGeometry x="450" y="730" width="120" height="60" as="geometry" />
        </mxCell>
        <mxCell id="Vi7gKBtvzw7k_XYwPfhD-43" value="" style="endArrow=classic;html=1;rounded=0;entryX=0.5;entryY=0;entryDx=0;entryDy=0;exitX=0.75;exitY=1;exitDx=0;exitDy=0;" edge="1" parent="WIyWlLk6GJQsqaUBKTNV-1" source="Vi7gKBtvzw7k_XYwPfhD-17" target="Vi7gKBtvzw7k_XYwPfhD-38">
          <mxGeometry width="50" height="50" relative="1" as="geometry">
            <mxPoint x="450" y="600" as="sourcePoint" />
            <mxPoint x="390" y="610" as="targetPoint" />
            <Array as="points">
              <mxPoint x="610" y="680" />
              <mxPoint x="510" y="680" />
            </Array>
          </mxGeometry>
        </mxCell>
        <mxCell id="Vi7gKBtvzw7k_XYwPfhD-44" value="" style="endArrow=classic;html=1;rounded=0;entryX=0.4;entryY=0.017;entryDx=0;entryDy=0;entryPerimeter=0;exitX=0.5;exitY=1;exitDx=0;exitDy=0;" edge="1" parent="WIyWlLk6GJQsqaUBKTNV-1" source="Vi7gKBtvzw7k_XYwPfhD-17" target="Vi7gKBtvzw7k_XYwPfhD-24">
          <mxGeometry width="50" height="50" relative="1" as="geometry">
            <mxPoint x="540" y="650" as="sourcePoint" />
            <mxPoint x="340" y="630" as="targetPoint" />
            <Array as="points">
              <mxPoint x="580" y="660" />
              <mxPoint x="318" y="660" />
            </Array>
          </mxGeometry>
        </mxCell>
        <mxCell id="Vi7gKBtvzw7k_XYwPfhD-46" value="" style="endArrow=classic;html=1;rounded=0;entryX=0.5;entryY=0;entryDx=0;entryDy=0;exitX=0.25;exitY=1;exitDx=0;exitDy=0;" edge="1" parent="WIyWlLk6GJQsqaUBKTNV-1" source="Vi7gKBtvzw7k_XYwPfhD-17" target="Vi7gKBtvzw7k_XYwPfhD-37">
          <mxGeometry width="50" height="50" relative="1" as="geometry">
            <mxPoint x="150" y="600" as="sourcePoint" />
            <mxPoint x="200" y="640" as="targetPoint" />
            <Array as="points">
              <mxPoint x="550" y="640" />
              <mxPoint x="150" y="640" />
            </Array>
          </mxGeometry>
        </mxCell>
        <mxCell id="Vi7gKBtvzw7k_XYwPfhD-47" value="Back" style="rounded=0;whiteSpace=wrap;html=1;" vertex="1" parent="WIyWlLk6GJQsqaUBKTNV-1">
          <mxGeometry x="790" y="730" width="70" height="60" as="geometry" />
        </mxCell>
        <mxCell id="Vi7gKBtvzw7k_XYwPfhD-53" style="edgeStyle=orthogonalEdgeStyle;rounded=0;orthogonalLoop=1;jettySize=auto;html=1;exitX=1;exitY=0.5;exitDx=0;exitDy=0;entryX=1;entryY=0;entryDx=0;entryDy=0;" edge="1" parent="WIyWlLk6GJQsqaUBKTNV-1" target="Vi7gKBtvzw7k_XYwPfhD-17">
          <mxGeometry relative="1" as="geometry">
            <mxPoint x="900" y="555" as="targetPoint" />
            <mxPoint x="860" y="835" as="sourcePoint" />
            <Array as="points">
              <mxPoint x="860" y="836" />
              <mxPoint x="901" y="836" />
              <mxPoint x="901" y="555" />
            </Array>
          </mxGeometry>
        </mxCell>
        <mxCell id="Vi7gKBtvzw7k_XYwPfhD-48" value="Home" style="rounded=0;whiteSpace=wrap;html=1;" vertex="1" parent="WIyWlLk6GJQsqaUBKTNV-1">
          <mxGeometry x="790" y="810" width="70" height="60" as="geometry" />
        </mxCell>
        <mxCell id="Vi7gKBtvzw7k_XYwPfhD-56" value="" style="edgeStyle=orthogonalEdgeStyle;rounded=0;orthogonalLoop=1;jettySize=auto;html=1;" edge="1" parent="WIyWlLk6GJQsqaUBKTNV-1" source="Vi7gKBtvzw7k_XYwPfhD-54" target="Vi7gKBtvzw7k_XYwPfhD-36">
          <mxGeometry relative="1" as="geometry">
            <Array as="points">
              <mxPoint x="650" y="720" />
              <mxPoint x="660" y="720" />
            </Array>
          </mxGeometry>
        </mxCell>
        <mxCell id="Vi7gKBtvzw7k_XYwPfhD-54" value="Next" style="rounded=0;whiteSpace=wrap;html=1;" vertex="1" parent="WIyWlLk6GJQsqaUBKTNV-1">
          <mxGeometry x="620" y="640" width="60" height="60" as="geometry" />
        </mxCell>
        <mxCell id="Vi7gKBtvzw7k_XYwPfhD-66" style="edgeStyle=orthogonalEdgeStyle;rounded=0;orthogonalLoop=1;jettySize=auto;html=1;entryX=0.75;entryY=1;entryDx=0;entryDy=0;" edge="1" parent="WIyWlLk6GJQsqaUBKTNV-1" source="Vi7gKBtvzw7k_XYwPfhD-62" target="Vi7gKBtvzw7k_XYwPfhD-24">
          <mxGeometry relative="1" as="geometry">
            <mxPoint x="360" y="800" as="targetPoint" />
            <Array as="points">
              <mxPoint x="360" y="820" />
            </Array>
          </mxGeometry>
        </mxCell>
        <mxCell id="Vi7gKBtvzw7k_XYwPfhD-62" value="Next" style="whiteSpace=wrap;html=1;rounded=0;" vertex="1" parent="WIyWlLk6GJQsqaUBKTNV-1">
          <mxGeometry x="390" y="810" width="60" height="60" as="geometry" />
        </mxCell>
        <mxCell id="Vi7gKBtvzw7k_XYwPfhD-75" style="edgeStyle=orthogonalEdgeStyle;rounded=0;orthogonalLoop=1;jettySize=auto;html=1;" edge="1" parent="WIyWlLk6GJQsqaUBKTNV-1" source="Vi7gKBtvzw7k_XYwPfhD-64">
          <mxGeometry relative="1" as="geometry">
            <mxPoint x="680" y="790" as="targetPoint" />
            <Array as="points">
              <mxPoint x="680" y="910" />
              <mxPoint x="680" y="790" />
            </Array>
          </mxGeometry>
        </mxCell>
        <mxCell id="Vi7gKBtvzw7k_XYwPfhD-64" value="Back" style="whiteSpace=wrap;html=1;rounded=0;" vertex="1" parent="WIyWlLk6GJQsqaUBKTNV-1">
          <mxGeometry x="550" y="880" width="60" height="60" as="geometry" />
        </mxCell>
        <mxCell id="Vi7gKBtvzw7k_XYwPfhD-72" style="edgeStyle=orthogonalEdgeStyle;rounded=0;orthogonalLoop=1;jettySize=auto;html=1;" edge="1" parent="WIyWlLk6GJQsqaUBKTNV-1">
          <mxGeometry relative="1" as="geometry">
            <mxPoint x="630" y="555" as="targetPoint" />
            <mxPoint x="540" y="896" as="sourcePoint" />
            <Array as="points">
              <mxPoint x="540" y="950" />
              <mxPoint x="920" y="950" />
              <mxPoint x="920" y="520" />
              <mxPoint x="630" y="520" />
            </Array>
          </mxGeometry>
        </mxCell>
        <mxCell id="Vi7gKBtvzw7k_XYwPfhD-70" value="Home" style="whiteSpace=wrap;html=1;rounded=0;" vertex="1" parent="WIyWlLk6GJQsqaUBKTNV-1">
          <mxGeometry x="480" y="920" width="60" height="60" as="geometry" />
        </mxCell>
        <mxCell id="Vi7gKBtvzw7k_XYwPfhD-81" value="Back" style="whiteSpace=wrap;html=1;rounded=0;" vertex="1" parent="WIyWlLk6GJQsqaUBKTNV-1">
          <mxGeometry x="340" y="880" width="60" height="60" as="geometry" />
        </mxCell>
        <mxCell id="Vi7gKBtvzw7k_XYwPfhD-83" value="" style="endArrow=classic;html=1;rounded=0;entryX=0.5;entryY=0;entryDx=0;entryDy=0;exitX=0.633;exitY=1.017;exitDx=0;exitDy=0;exitPerimeter=0;" edge="1" parent="WIyWlLk6GJQsqaUBKTNV-1" source="Vi7gKBtvzw7k_XYwPfhD-24" target="Vi7gKBtvzw7k_XYwPfhD-81">
          <mxGeometry width="50" height="50" relative="1" as="geometry">
            <mxPoint x="250" y="880" as="sourcePoint" />
            <mxPoint x="300" y="830" as="targetPoint" />
            <Array as="points">
              <mxPoint x="346" y="840" />
              <mxPoint x="370" y="840" />
            </Array>
          </mxGeometry>
        </mxCell>
        <mxCell id="Vi7gKBtvzw7k_XYwPfhD-84" value="" style="endArrow=classic;html=1;rounded=0;exitX=1;exitY=0.5;exitDx=0;exitDy=0;" edge="1" parent="WIyWlLk6GJQsqaUBKTNV-1" source="Vi7gKBtvzw7k_XYwPfhD-81">
          <mxGeometry width="50" height="50" relative="1" as="geometry">
            <mxPoint x="400" y="990" as="sourcePoint" />
            <mxPoint x="470" y="790" as="targetPoint" />
            <Array as="points">
              <mxPoint x="470" y="910" />
              <mxPoint x="470" y="850" />
            </Array>
          </mxGeometry>
        </mxCell>
        <mxCell id="Vi7gKBtvzw7k_XYwPfhD-87" value="Home" style="rounded=0;whiteSpace=wrap;html=1;" vertex="1" parent="WIyWlLk6GJQsqaUBKTNV-1">
          <mxGeometry x="270" y="880" width="60" height="60" as="geometry" />
        </mxCell>
        <mxCell id="Vi7gKBtvzw7k_XYwPfhD-88" value="" style="endArrow=classic;html=1;rounded=0;entryX=0.5;entryY=0;entryDx=0;entryDy=0;exitX=0.5;exitY=1;exitDx=0;exitDy=0;" edge="1" parent="WIyWlLk6GJQsqaUBKTNV-1" source="Vi7gKBtvzw7k_XYwPfhD-24" target="Vi7gKBtvzw7k_XYwPfhD-87">
          <mxGeometry width="50" height="50" relative="1" as="geometry">
            <mxPoint x="70" y="910" as="sourcePoint" />
            <mxPoint x="120" y="860" as="targetPoint" />
            <Array as="points">
              <mxPoint x="330" y="840" />
              <mxPoint x="300" y="840" />
            </Array>
          </mxGeometry>
        </mxCell>
        <mxCell id="Vi7gKBtvzw7k_XYwPfhD-89" value="" style="endArrow=classic;html=1;rounded=0;entryX=0.75;entryY=0;entryDx=0;entryDy=0;exitX=0.5;exitY=1;exitDx=0;exitDy=0;" edge="1" parent="WIyWlLk6GJQsqaUBKTNV-1" source="Vi7gKBtvzw7k_XYwPfhD-87" target="Vi7gKBtvzw7k_XYwPfhD-17">
          <mxGeometry width="50" height="50" relative="1" as="geometry">
            <mxPoint x="309" y="943" as="sourcePoint" />
            <mxPoint x="650" y="440" as="targetPoint" />
            <Array as="points">
              <mxPoint x="300" y="990" />
              <mxPoint x="950" y="990" />
              <mxPoint x="950" y="500" />
              <mxPoint x="610" y="500" />
            </Array>
          </mxGeometry>
        </mxCell>
        <mxCell id="Vi7gKBtvzw7k_XYwPfhD-90" value="Next" style="rounded=0;whiteSpace=wrap;html=1;" vertex="1" parent="WIyWlLk6GJQsqaUBKTNV-1">
          <mxGeometry x="180" y="880" width="70" height="60" as="geometry" />
        </mxCell>
        <mxCell id="Vi7gKBtvzw7k_XYwPfhD-91" value="" style="endArrow=classic;html=1;rounded=0;entryX=0.5;entryY=0;entryDx=0;entryDy=0;exitX=0.25;exitY=1;exitDx=0;exitDy=0;" edge="1" parent="WIyWlLk6GJQsqaUBKTNV-1" source="Vi7gKBtvzw7k_XYwPfhD-24" target="Vi7gKBtvzw7k_XYwPfhD-90">
          <mxGeometry width="50" height="50" relative="1" as="geometry">
            <mxPoint x="160" y="850" as="sourcePoint" />
            <mxPoint x="210" y="800" as="targetPoint" />
            <Array as="points">
              <mxPoint x="300" y="820" />
              <mxPoint x="215" y="820" />
            </Array>
          </mxGeometry>
        </mxCell>
        <mxCell id="Vi7gKBtvzw7k_XYwPfhD-92" value="" style="endArrow=classic;html=1;rounded=0;entryX=0.608;entryY=1.033;entryDx=0;entryDy=0;entryPerimeter=0;exitX=0;exitY=0.5;exitDx=0;exitDy=0;" edge="1" parent="WIyWlLk6GJQsqaUBKTNV-1" source="Vi7gKBtvzw7k_XYwPfhD-90" target="Vi7gKBtvzw7k_XYwPfhD-37">
          <mxGeometry width="50" height="50" relative="1" as="geometry">
            <mxPoint x="60" y="880" as="sourcePoint" />
            <mxPoint x="110" y="830" as="targetPoint" />
            <Array as="points">
              <mxPoint x="163" y="910" />
            </Array>
          </mxGeometry>
        </mxCell>
        <mxCell id="Vi7gKBtvzw7k_XYwPfhD-94" value="Back" style="rounded=0;whiteSpace=wrap;html=1;" vertex="1" parent="WIyWlLk6GJQsqaUBKTNV-1">
          <mxGeometry x="210" y="650" width="70" height="60" as="geometry" />
        </mxCell>
        <mxCell id="Vi7gKBtvzw7k_XYwPfhD-95" value="" style="endArrow=classic;html=1;rounded=0;entryX=0.25;entryY=0;entryDx=0;entryDy=0;exitX=1;exitY=0.5;exitDx=0;exitDy=0;" edge="1" parent="WIyWlLk6GJQsqaUBKTNV-1" source="Vi7gKBtvzw7k_XYwPfhD-94" target="Vi7gKBtvzw7k_XYwPfhD-24">
          <mxGeometry width="50" height="50" relative="1" as="geometry">
            <mxPoint x="300" y="680" as="sourcePoint" />
            <mxPoint x="270" y="710" as="targetPoint" />
            <Array as="points">
              <mxPoint x="300" y="680" />
            </Array>
          </mxGeometry>
        </mxCell>
        <mxCell id="Vi7gKBtvzw7k_XYwPfhD-96" value="" style="endArrow=classic;html=1;rounded=0;entryX=0;entryY=0.5;entryDx=0;entryDy=0;exitX=0.675;exitY=-0.083;exitDx=0;exitDy=0;exitPerimeter=0;" edge="1" parent="WIyWlLk6GJQsqaUBKTNV-1" source="Vi7gKBtvzw7k_XYwPfhD-37" target="Vi7gKBtvzw7k_XYwPfhD-94">
          <mxGeometry width="50" height="50" relative="1" as="geometry">
            <mxPoint x="150" y="720" as="sourcePoint" />
            <mxPoint x="200" y="670" as="targetPoint" />
            <Array as="points">
              <mxPoint x="170" y="680" />
            </Array>
          </mxGeometry>
        </mxCell>
        <mxCell id="Vi7gKBtvzw7k_XYwPfhD-97" value="Home" style="rounded=0;whiteSpace=wrap;html=1;" vertex="1" parent="WIyWlLk6GJQsqaUBKTNV-1">
          <mxGeometry x="80" y="880" width="70" height="60" as="geometry" />
        </mxCell>
        <mxCell id="Vi7gKBtvzw7k_XYwPfhD-98" value="" style="endArrow=classic;html=1;rounded=0;entryX=0.5;entryY=0;entryDx=0;entryDy=0;exitX=0.417;exitY=1.067;exitDx=0;exitDy=0;exitPerimeter=0;" edge="1" parent="WIyWlLk6GJQsqaUBKTNV-1" source="Vi7gKBtvzw7k_XYwPfhD-37" target="Vi7gKBtvzw7k_XYwPfhD-97">
          <mxGeometry width="50" height="50" relative="1" as="geometry">
            <mxPoint x="50" y="870" as="sourcePoint" />
            <mxPoint x="100" y="820" as="targetPoint" />
            <Array as="points">
              <mxPoint x="140" y="840" />
              <mxPoint x="115" y="840" />
            </Array>
          </mxGeometry>
        </mxCell>
        <mxCell id="Vi7gKBtvzw7k_XYwPfhD-99" value="" style="endArrow=classic;html=1;rounded=0;exitX=0.5;exitY=1;exitDx=0;exitDy=0;entryX=0.6;entryY=-0.067;entryDx=0;entryDy=0;entryPerimeter=0;" edge="1" parent="WIyWlLk6GJQsqaUBKTNV-1" source="Vi7gKBtvzw7k_XYwPfhD-97" target="Vi7gKBtvzw7k_XYwPfhD-17">
          <mxGeometry width="50" height="50" relative="1" as="geometry">
            <mxPoint x="120" y="1020" as="sourcePoint" />
            <mxPoint x="170" y="970" as="targetPoint" />
            <Array as="points">
              <mxPoint x="115" y="1020" />
              <mxPoint x="980" y="1020" />
              <mxPoint x="980" y="470" />
              <mxPoint x="592" y="470" />
            </Array>
          </mxGeometry>
        </mxCell>
        <mxCell id="Vi7gKBtvzw7k_XYwPfhD-101" value="Checkout" style="rounded=0;whiteSpace=wrap;html=1;" vertex="1" parent="WIyWlLk6GJQsqaUBKTNV-1">
          <mxGeometry x="10" y="1070" width="120" height="60" as="geometry" />
        </mxCell>
        <mxCell id="Vi7gKBtvzw7k_XYwPfhD-102" value="Next" style="rounded=0;whiteSpace=wrap;html=1;" vertex="1" parent="WIyWlLk6GJQsqaUBKTNV-1">
          <mxGeometry x="10" y="800" width="80" height="60" as="geometry" />
        </mxCell>
        <mxCell id="Vi7gKBtvzw7k_XYwPfhD-104" value="" style="endArrow=classic;html=1;rounded=0;entryX=0.575;entryY=-0.033;entryDx=0;entryDy=0;exitX=0.413;exitY=1.117;exitDx=0;exitDy=0;exitPerimeter=0;entryPerimeter=0;" edge="1" parent="WIyWlLk6GJQsqaUBKTNV-1" source="Vi7gKBtvzw7k_XYwPfhD-102" target="Vi7gKBtvzw7k_XYwPfhD-101">
          <mxGeometry width="50" height="50" relative="1" as="geometry">
            <mxPoint x="20" y="1010" as="sourcePoint" />
            <mxPoint x="70" y="960" as="targetPoint" />
            <Array as="points">
              <mxPoint x="43" y="980" />
              <mxPoint x="80" y="980" />
            </Array>
          </mxGeometry>
        </mxCell>
        <mxCell id="Vi7gKBtvzw7k_XYwPfhD-105" value="Back" style="rounded=0;whiteSpace=wrap;html=1;" vertex="1" parent="WIyWlLk6GJQsqaUBKTNV-1">
          <mxGeometry x="-30" y="980" width="60" height="60" as="geometry" />
        </mxCell>
        <mxCell id="Vi7gKBtvzw7k_XYwPfhD-106" value="" style="endArrow=classic;html=1;rounded=0;exitX=0;exitY=0.5;exitDx=0;exitDy=0;entryX=0.5;entryY=1;entryDx=0;entryDy=0;" edge="1" parent="WIyWlLk6GJQsqaUBKTNV-1" source="Vi7gKBtvzw7k_XYwPfhD-101" target="Vi7gKBtvzw7k_XYwPfhD-105">
          <mxGeometry width="50" height="50" relative="1" as="geometry">
            <mxPoint x="-140" y="1000" as="sourcePoint" />
            <mxPoint x="-90" y="950" as="targetPoint" />
            <Array as="points">
              <mxPoint y="1100" />
            </Array>
          </mxGeometry>
        </mxCell>
        <mxCell id="Vi7gKBtvzw7k_XYwPfhD-107" value="" style="endArrow=classic;html=1;rounded=0;exitX=0.5;exitY=0;exitDx=0;exitDy=0;entryX=0;entryY=0.25;entryDx=0;entryDy=0;" edge="1" parent="WIyWlLk6GJQsqaUBKTNV-1" source="Vi7gKBtvzw7k_XYwPfhD-105" target="Vi7gKBtvzw7k_XYwPfhD-37">
          <mxGeometry width="50" height="50" relative="1" as="geometry">
            <mxPoint x="-90" y="960" as="sourcePoint" />
            <mxPoint x="-40" y="910" as="targetPoint" />
            <Array as="points">
              <mxPoint y="745" />
            </Array>
          </mxGeometry>
        </mxCell>
        <mxCell id="Vi7gKBtvzw7k_XYwPfhD-108" value="Home" style="rounded=0;whiteSpace=wrap;html=1;" vertex="1" parent="WIyWlLk6GJQsqaUBKTNV-1">
          <mxGeometry x="-100" y="1070" width="60" height="60" as="geometry" />
        </mxCell>
        <mxCell id="Vi7gKBtvzw7k_XYwPfhD-109" value="" style="endArrow=classic;html=1;rounded=0;exitX=0.025;exitY=0.65;exitDx=0;exitDy=0;exitPerimeter=0;entryX=1.033;entryY=0.65;entryDx=0;entryDy=0;entryPerimeter=0;" edge="1" parent="WIyWlLk6GJQsqaUBKTNV-1" source="Vi7gKBtvzw7k_XYwPfhD-101" target="Vi7gKBtvzw7k_XYwPfhD-108">
          <mxGeometry width="50" height="50" relative="1" as="geometry">
            <mxPoint x="-60" y="1190" as="sourcePoint" />
            <mxPoint x="-30" y="1110" as="targetPoint" />
          </mxGeometry>
        </mxCell>
        <mxCell id="Vi7gKBtvzw7k_XYwPfhD-110" value="" style="endArrow=classic;html=1;rounded=0;exitX=0.5;exitY=0;exitDx=0;exitDy=0;entryX=0;entryY=0.75;entryDx=0;entryDy=0;" edge="1" parent="WIyWlLk6GJQsqaUBKTNV-1" source="Vi7gKBtvzw7k_XYwPfhD-108" target="Vi7gKBtvzw7k_XYwPfhD-17">
          <mxGeometry width="50" height="50" relative="1" as="geometry">
            <mxPoint x="-90" y="1050" as="sourcePoint" />
            <mxPoint x="-70" y="610" as="targetPoint" />
            <Array as="points">
              <mxPoint x="-70" y="840" />
              <mxPoint x="-70" y="600" />
            </Array>
          </mxGeometry>
        </mxCell>
        <mxCell id="Vi7gKBtvzw7k_XYwPfhD-111" value="End" style="ellipse;whiteSpace=wrap;html=1;" vertex="1" parent="WIyWlLk6GJQsqaUBKTNV-1">
          <mxGeometry x="210" y="1060" width="120" height="80" as="geometry" />
        </mxCell>
        <mxCell id="Vi7gKBtvzw7k_XYwPfhD-112" value="" style="endArrow=classic;html=1;rounded=0;exitX=1;exitY=0.5;exitDx=0;exitDy=0;entryX=0;entryY=0.5;entryDx=0;entryDy=0;" edge="1" parent="WIyWlLk6GJQsqaUBKTNV-1" source="Vi7gKBtvzw7k_XYwPfhD-101" target="Vi7gKBtvzw7k_XYwPfhD-111">
          <mxGeometry width="50" height="50" relative="1" as="geometry">
            <mxPoint x="150" y="1110" as="sourcePoint" />
            <mxPoint x="200" y="1060" as="targetPoint" />
          </mxGeometry>
        </mxCell>
        <mxCell id="Vi7gKBtvzw7k_XYwPfhD-113" value="Back" style="rounded=0;whiteSpace=wrap;html=1;" vertex="1" parent="WIyWlLk6GJQsqaUBKTNV-1">
          <mxGeometry x="680" y="250" width="70" height="60" as="geometry" />
        </mxCell>
        <mxCell id="Vi7gKBtvzw7k_XYwPfhD-114" value="Back" style="rounded=0;whiteSpace=wrap;html=1;" vertex="1" parent="WIyWlLk6GJQsqaUBKTNV-1">
          <mxGeometry x="-40" y="250" width="70" height="60" as="geometry" />
        </mxCell>
        <mxCell id="Vi7gKBtvzw7k_XYwPfhD-115" value="" style="endArrow=classic;html=1;rounded=0;exitX=-0.05;exitY=0.483;exitDx=0;exitDy=0;exitPerimeter=0;entryX=1;entryY=0.5;entryDx=0;entryDy=0;" edge="1" parent="WIyWlLk6GJQsqaUBKTNV-1" source="Vi7gKBtvzw7k_XYwPfhD-12" target="Vi7gKBtvzw7k_XYwPfhD-114">
          <mxGeometry width="50" height="50" relative="1" as="geometry">
            <mxPoint x="-40" y="410" as="sourcePoint" />
            <mxPoint x="10" y="360" as="targetPoint" />
          </mxGeometry>
        </mxCell>
        <mxCell id="Vi7gKBtvzw7k_XYwPfhD-116" value="" style="endArrow=classic;html=1;rounded=0;entryX=0;entryY=0.25;entryDx=0;entryDy=0;exitX=0.571;exitY=0;exitDx=0;exitDy=0;exitPerimeter=0;" edge="1" parent="WIyWlLk6GJQsqaUBKTNV-1" source="Vi7gKBtvzw7k_XYwPfhD-114" target="WIyWlLk6GJQsqaUBKTNV-3">
          <mxGeometry width="50" height="50" relative="1" as="geometry">
            <mxPoint y="240" as="sourcePoint" />
            <mxPoint x="30" y="150" as="targetPoint" />
            <Array as="points">
              <mxPoint y="50" />
            </Array>
          </mxGeometry>
        </mxCell>
        <mxCell id="Vi7gKBtvzw7k_XYwPfhD-117" value="" style="endArrow=classic;html=1;rounded=0;exitX=1;exitY=0.5;exitDx=0;exitDy=0;entryX=0;entryY=0.5;entryDx=0;entryDy=0;" edge="1" parent="WIyWlLk6GJQsqaUBKTNV-1" source="Vi7gKBtvzw7k_XYwPfhD-13" target="Vi7gKBtvzw7k_XYwPfhD-113">
          <mxGeometry width="50" height="50" relative="1" as="geometry">
            <mxPoint x="650" y="240" as="sourcePoint" />
            <mxPoint x="700" y="190" as="targetPoint" />
          </mxGeometry>
        </mxCell>
        <mxCell id="Vi7gKBtvzw7k_XYwPfhD-118" value="" style="endArrow=classic;html=1;rounded=0;exitX=0.5;exitY=0;exitDx=0;exitDy=0;entryX=1;entryY=0.25;entryDx=0;entryDy=0;" edge="1" parent="WIyWlLk6GJQsqaUBKTNV-1" source="Vi7gKBtvzw7k_XYwPfhD-113" target="WIyWlLk6GJQsqaUBKTNV-3">
          <mxGeometry width="50" height="50" relative="1" as="geometry">
            <mxPoint x="710" y="240" as="sourcePoint" />
            <mxPoint x="760" y="190" as="targetPoint" />
            <Array as="points">
              <mxPoint x="715" y="50" />
            </Array>
          </mxGeometry>
        </mxCell>
        <mxCell id="Vi7gKBtvzw7k_XYwPfhD-119" value="Check if user&lt;br&gt;is an Admin" style="rhombus;whiteSpace=wrap;html=1;shadow=0;fontFamily=Helvetica;fontSize=12;align=center;strokeWidth=1;spacing=6;spacingTop=-4;" vertex="1" parent="WIyWlLk6GJQsqaUBKTNV-1">
          <mxGeometry x="460" y="420" width="100" height="80" as="geometry" />
        </mxCell>
        <mxCell id="Vi7gKBtvzw7k_XYwPfhD-120" value="" style="endArrow=classic;html=1;rounded=0;exitX=0.2;exitY=0.033;exitDx=0;exitDy=0;exitPerimeter=0;entryX=0.5;entryY=1;entryDx=0;entryDy=0;" edge="1" parent="WIyWlLk6GJQsqaUBKTNV-1" source="Vi7gKBtvzw7k_XYwPfhD-17" target="Vi7gKBtvzw7k_XYwPfhD-119">
          <mxGeometry width="50" height="50" relative="1" as="geometry">
            <mxPoint x="480" y="560" as="sourcePoint" />
            <mxPoint x="530" y="510" as="targetPoint" />
            <Array as="points">
              <mxPoint x="544" y="530" />
              <mxPoint x="510" y="530" />
            </Array>
          </mxGeometry>
        </mxCell>
        <mxCell id="Vi7gKBtvzw7k_XYwPfhD-121" value="" style="endArrow=classic;html=1;rounded=0;exitX=0.5;exitY=0;exitDx=0;exitDy=0;entryX=0.5;entryY=0;entryDx=0;entryDy=0;" edge="1" parent="WIyWlLk6GJQsqaUBKTNV-1" source="Vi7gKBtvzw7k_XYwPfhD-119" target="Vi7gKBtvzw7k_XYwPfhD-25">
          <mxGeometry width="50" height="50" relative="1" as="geometry">
            <mxPoint x="510" y="400" as="sourcePoint" />
            <mxPoint x="510" y="340" as="targetPoint" />
            <Array as="points">
              <mxPoint x="510" y="350" />
              <mxPoint x="360" y="350" />
            </Array>
          </mxGeometry>
        </mxCell>
        <mxCell id="Vi7gKBtvzw7k_XYwPfhD-122" style="edgeStyle=orthogonalEdgeStyle;rounded=0;orthogonalLoop=1;jettySize=auto;html=1;exitX=0.5;exitY=0;exitDx=0;exitDy=0;entryX=0.583;entryY=-0.017;entryDx=0;entryDy=0;entryPerimeter=0;" edge="1" parent="WIyWlLk6GJQsqaUBKTNV-1" source="Vi7gKBtvzw7k_XYwPfhD-13" target="Vi7gKBtvzw7k_XYwPfhD-13">
          <mxGeometry relative="1" as="geometry" />
        </mxCell>
        <mxCell id="Vi7gKBtvzw7k_XYwPfhD-123" value="" style="endArrow=classic;html=1;rounded=0;exitX=0.5;exitY=0;exitDx=0;exitDy=0;entryX=1;entryY=0.25;entryDx=0;entryDy=0;" edge="1" parent="WIyWlLk6GJQsqaUBKTNV-1" source="Vi7gKBtvzw7k_XYwPfhD-47" target="Vi7gKBtvzw7k_XYwPfhD-17">
          <mxGeometry width="50" height="50" relative="1" as="geometry">
            <mxPoint x="820" y="710" as="sourcePoint" />
            <mxPoint x="870" y="660" as="targetPoint" />
            <Array as="points">
              <mxPoint x="825" y="570" />
            </Array>
          </mxGeometry>
        </mxCell>
        <mxCell id="Vi7gKBtvzw7k_XYwPfhD-125" value="Next" style="rounded=0;whiteSpace=wrap;html=1;" vertex="1" parent="WIyWlLk6GJQsqaUBKTNV-1">
          <mxGeometry x="590" y="800" width="60" height="50" as="geometry" />
        </mxCell>
        <mxCell id="Vi7gKBtvzw7k_XYwPfhD-126" value="" style="endArrow=classic;html=1;rounded=0;exitX=0.25;exitY=1;exitDx=0;exitDy=0;entryX=1;entryY=0.5;entryDx=0;entryDy=0;" edge="1" parent="WIyWlLk6GJQsqaUBKTNV-1" source="Vi7gKBtvzw7k_XYwPfhD-36" target="Vi7gKBtvzw7k_XYwPfhD-125">
          <mxGeometry width="50" height="50" relative="1" as="geometry">
            <mxPoint x="700" y="920" as="sourcePoint" />
            <mxPoint x="750" y="870" as="targetPoint" />
            <Array as="points">
              <mxPoint x="660" y="825" />
            </Array>
          </mxGeometry>
        </mxCell>
        <mxCell id="Vi7gKBtvzw7k_XYwPfhD-127" value="" style="endArrow=classic;html=1;rounded=0;exitX=0.5;exitY=0;exitDx=0;exitDy=0;entryX=1;entryY=0.5;entryDx=0;entryDy=0;" edge="1" parent="WIyWlLk6GJQsqaUBKTNV-1" source="Vi7gKBtvzw7k_XYwPfhD-125" target="Vi7gKBtvzw7k_XYwPfhD-38">
          <mxGeometry width="50" height="50" relative="1" as="geometry">
            <mxPoint x="590" y="780" as="sourcePoint" />
            <mxPoint x="640" y="730" as="targetPoint" />
            <Array as="points">
              <mxPoint x="620" y="780" />
              <mxPoint x="600" y="780" />
              <mxPoint x="590" y="760" />
            </Array>
          </mxGeometry>
        </mxCell>
      </root>
    </mxGraphModel>
  </diagram>
</mxfile>
